<svg data-name="Layer 1" xmlns="http://www.w3.org/2000/svg" viewBox="0 0 299.18 349.05">
  <g id="avatar">
  <path d="M232.16 49.81c-1.44-.71-3.43-1.05-4.19-2.21-1.67-2.54-3.38-1.68-5.57-1.18-2.64.6-3.47 1.93-3.55 4.48-.09 3-.6 5.92-.85 8.16l18.21 8.73a1.35 1.35 0 0 0 .43-.55c.28-1.76.5-3.52.74-5.29 1.2 1.47 2.71 2.79 3.53 4.45a32.87 32.87 0 0 1 1.87 6.18c2 7.44 3.66 8.81 11.36 9 2.49.07 5 0 8.09 0l-6.74-16c-3 1.66-5.86 3.38-8.85 4.7-.93.41-2.33-.25-3.52-.41.51-1.1.73-2.64 1.59-3.21 2.75-1.85 5.75-3.34 8.65-5-.56-6.24.17-7.15 6.36-7.69 5.73-.5 11.37-.79 15.58 4.41.53.65 2.31.56 3.45.41 7.42-1 13.64 2 15.79 9.07.87 2.89-.44 7.43-2.4 9.93-2.85 3.64-7.19 6.12-10.95 9.15l3.5.73c5.25 1.07 7.89 4.13 8.95 9.38a55.45 55.45 0 0 0 3.37 10.79c2.12 4.94 2.85 9.67-.91 14-1 1.2-2.89 1.68-5 2.85 0-2-.28-3 0-3.29 4.85-4.94 3.28-9.72.2-14.89-1.3-2.17-1.7-5.07-1.88-7.68-.36-5-3.1-7-7.77-7.22a12.16 12.16 0 0 1-3-.1c-1.83-.55-3.59-1.37-5.37-2.08l3.92-2.66c-.67-6.51-1.33-13.19-2.06-19.87-.48-4.4-6.1-9.07-10.9-9-2 0-3.93.44-6.86.79 2.8 6.64 5.21 12.9 8.07 19 3.15 6.65 2.13 8.36-5.46 8.22-3.47-.06-6.95 0-10.67 0-1.78 6.49-3.59 12.87-5.25 19.29-.27 1-.31 2.66.3 3.28 5.53 5.66 10.41 12.44 19.67 12.16 1.15 0 2.33.79 3.49 1.21a12.15 12.15 0 0 0-1.8 3c-1.91 7.29-9 9.42-13.78 13.9-1.3 1.23-3.68 1.31-5.56 1.92.92-1.69 1.49-3.77 2.83-5 3.93-3.54 8.18-6.72 12.93-10.55-9-1.22-14.75-6.4-19.8-12.37-2.66-3.15-4.93-2.53-8.18-1.27-3.65 1.42-2.38 3.91-2.09 6.16.89 6.76 1.85 13.53 3.09 20.23.32 1.73 1.81 3.23 2.73 4.85.52.92 1 1.87 1.49 2.8-1.18.34-2.59 1.25-3.48.89a26.47 26.47 0 0 1-4.79-3.09c-5.95 2.24-12 4-17.51 6.92-1.52.8-2.68 5.9-1.66 7.34 5.49 7.7 9.52 15.62 7.73 25.71h16.77c-4.78-6.57-7.35-14.06-14.53-18.83.18-3.74 2-5.46 6.4-5.43 0 4.55 1.32 7.11 9 17.17 2.38-2.14 4.6-4.6 7.27-6.39a10 10 0 0 1 6.06-1.74c3.76.39 5.59-1.46 7.69-4.12 2.74-3.46 3-6-.31-9.29-4.32-4.3-5.49-4.35-8.17 1a22.38 22.38 0 0 1-3.19 5c-.56.62-2 .43-3.07.61-.07-1-.5-2.23-.16-3.12 3.83-9.95 13.42-14.24 20.79-20.68.58-.51 3.36.52 4.26 1.57 2.13 2.48 3.74 5.4 6.64 8a103.58 103.58 0 0 1 .1-10.6c.19-1.84 1.46-3.56 2.24-5.34.66 1.69 1.75 3.34 1.9 5.07.3 3.44.09 6.93.09 10.74a13 13 0 0 1 3.4-.59 12.34 12.34 0 0 1 2.92 1.16c-.5.93-.77 2.31-1.54 2.72-2.49 1.32-5.08 2.74-7.8 3.21-1.48.26-3.75-.93-4.83-2.19-2.25-2.63-3.95-5.74-6.21-9.17l-8.63 6.76c4.69 3 8.61 5.43 12.45 8a3.82 3.82 0 0 1 1.53 2.22 2.24 2.24 0 0 1-1.41 1.61c-6.36-.84-6 5.55-9.33 8.07 3 2.8 5.65 2.28 7.16-.73 3.32-6.62 9.48-8.37 15.79-10.07 1.28-.35 2.59-.61 3.86-1 8.67-2.71 9.93-6 5.49-14-1.13-2-2-4.21-3.23-6.89 4.88.65 9.11 6.3 9.83 11.74s-.9 9-6.14 11.26c-4.55 2-9.54 2.91-14.11 4.83a16.65 16.65 0 0 0-6.5 4.89c-4.95 6.41-6.51 7.1-15.32 4.38.26 2.63.63 4.92.65 7.2a12 12 0 0 1-1 3.4c-1-.66-2.71-1.15-3-2a78.54 78.54 0 0 1-1.47-8.86c-6-1.28-11.13 4.64-10.31 11.11.7 5.49-.37 11.22-.84 16.82-.05.62-1.32 1.15-2 1.72-.63-1-1.81-2-1.79-3 .09-3.77.57-7.53.92-11.56h-8.6c.61 5.76 1.32 11.33 1.69 16.91.08 1.26-1 2.59-1.62 3.89-.83-1.19-2.19-2.3-2.39-3.6-.88-5.59-1.43-11.23-2.16-17.45-2 0-4 .35-5.85-.11-1.6-.4-2.89-1.94-4.47-2.58-3.1-1.24-6.26-2.77-9.49-3-1.69-.14-3.57 2.17-6.12 3.87 3.7 2 6.48 3.33 9.12 4.9 4 2.37 6.29 5.72 6.06 10.65-.26 5.73-1.31 6.73-7 7.36a13.28 13.28 0 0 0-5.83 2.62c-5.41 3.86-9.6-1.13-14.36-1.77-2.64-.36-4.65-1.73-4.5-5a34.34 34.34 0 0 0-.12-8 8.91 8.91 0 0 0-2.95-4.84c-2-1.66-4.08-1.13-5.95 1.1a43.28 43.28 0 0 1-6.64 6 24.12 24.12 0 0 1-4.41 2.21l-1.43-1.68 10.06-10.73c-6.36-.85-11.92-4.88-18.26-.13-1.86 1.39-5.32.5-8 1-3.36.65-6.65 1.66-10.38 2.62 4.09 9.66 10.47 5.62 16.27 3.92l.47 1.44c-.79 1.17-1.32 2.71-2.41 3.45-6.25 4.3-15.67 1.23-18.29-5.94a4.87 4.87 0 0 1 .36-3.68c2.7-4.51 10.41-7.54 15.31-5.89 2.3.78 3.59.09 5.61-1 2.88-1.52 6.63-2.71 9.73-2.22 6.84 1.07 13.5 3.28 21.07 5.24a40.41 40.41 0 0 0-5.86-23.28c-6.74 1.7-13 2.67-19.11-1.92-4.06-3.05-9.09-2.23-13.4-.18-6.44 3.08-12.54 6.85-18.92 10.05-1.78.89-4.05.77-6.1 1.12 1.34-1.61 2.37-3.72 4.06-4.75a201.83 201.83 0 0 1 17.43-9.7 23 23 0 0 1 17.5-1.39c1.23.39 3.4-.51 4.44-1.53 4.28-4.19 8.2-8.75 12.47-13 .95-.93 2.79-1 4.22-1.4-.37 1.42-.31 3.22-1.17 4.2-4.45 5.06-9.14 9.91-14.82 16l10.71-1.06 1.27-6c1.86 2.19 3.37 3.27 3.91 4.72 2.73 7.42 5.52 14.84 7.62 22.45.9 3.26 1.75 5.61 5.93 6l6.46-8a3.6 3.6 0 0 0-.47-1.18c-3.24-2.61-7.76-4.17-6.64-9.93a15.35 15.35 0 0 1 10-12.09c5.17-2.09 5.16-2.13 4.83-8.34-10.32 5.56-14.1-4.45-20.44-8.5-2.71-1.73-1.26-3.69.94-5 3.54-2.09 7.1-4.13 10.94-6.37-3.44-3.42-6.35-5-10.89-2.82a139.66 139.66 0 0 1-17.19 6.73c-1.34.44-3.13-.49-4.71-.79 1-1.05 1.9-2.56 3.17-3.08 5.67-2.32 11.45-4.36 17.71-6.69-1.3-3-2.42-5.7-3.68-8.34-.32-.66-1.21-1.61-1.7-1.53-5.32.82-11.2-2.58-16.06 2.07a2.53 2.53 0 0 1-2.27.32c-3.95-1.8-7.74-3.94-11.75-5.6-3-1.25-3.39-2.78-1.58-5.28 2.14-3 4.23-6 6.2-8.75-21.35-11.65-44.78-15.65-68.14-19.86a26.52 26.52 0 0 1-5.81-1.42c-12-5.17-23.49-.48-35.79 1.17 0 5.21 1.11 10.5-.24 15-2.44 8.18-5.51 16.43-9.89 23.7-5.15 8.62-10.35 16.78-10.52 27.08a3.82 3.82 0 0 1-.62 2.36 15.4 15.4 0 0 1-2.9 2c-.39-1.1-1.16-2.22-1.1-3.3.63-11.86 5-22.25 12.44-31.47 1.35-1.59 2.21-3.59 3.94-6.47l-9.09 5-1.58-2.12c3.16-2.83 5.91-7 9.58-8.11 3.9-1.15 4.47-3.29 5.07-6.1a24.44 24.44 0 0 0 .35-9.22 74.42 74.42 0 0 1-5.66 6.59c-.83.78-2.52.65-3.82.93.17-1.19 0-2.66.58-3.53 2.12-3 4.54-5.75 6.84-8.6.63-.77 1.82-1.6 1.77-2.33-.44-6.17 4.17-5.61 8-6.23 6.08-1 12.23-1.68 18.19-3.15 3.4-.84 6.39-3.2 9.72-4.48 7.11-2.72 14.32-5.17 22.28-8-2.72-3.58-5.07-6.71-7.47-9.82-1.6-2.07-2.89-4.6-4.94-6.06-5.59-4-11.45-3.86-17.78-.95-6 2.77-12.5 4.53-18.75 6.8-2.79 1-6.31 10-4.55 12.24.67.84 3.51 1.26 4.14.63 5.46-5.46 12-5.4 19-4.78 3.9.35 7.93-.87 11.91-1 1.08 0 2.21 1.3 3.32 2-.94.73-1.83 2-2.81 2.09-6.27.42-12.59.29-18.84.94a18.14 18.14 0 0 0-7.97 3.14c-4 2.69-7.61 4.17-11.71.56a3.12 3.12 0 0 0-1.23-.82c-3.48-.74-16.14 6.69-17.34 10.19-.7 2-1 4.24-1.91 6.18-.43.93-1.81 1.42-2.76 2.1-.39-1.13-1.22-2.31-1.1-3.39 1-9.2 6.3-14.7 15.07-16.77-.93-10.59-.52-11.52 9.37-15.1 12-4.35 24.17-8.34 36.24-12.55a8.8 8.8 0 0 0 2.81-1.92c4.61-4.2 8.81-8.95 13.87-12.48 3.16-2.21 7.51-3.1 11.46-3.67 3.21-.47 6.61.4 10.73.74 1.09-2.87 2.38-6 3.47-9.26 1-3 2.57-3.87 5.66-2.58 4.6 1.92 9.42 3.32 14 5.26 1.15.48 1.79 2.17 2.67 3.3-1.32.23-2.8 1-3.95.6-4.6-1.41-9.09-3.16-14.12-5l-2.31 5.9a68.47 68.47 0 0 1 7.89.08c1.37.17 2.64 1.15 3.95 1.77-1.38.77-2.73 1.62-4.17 2.27a3.64 3.64 0 0 1-2 0c-5.15-.91-8.43.59-9.72 6.2-.32 1.41-3.2 2.87-5.07 3.13a23.29 23.29 0 0 1-7.88-.74c-1-.23-1.85-1.46-2.77-2.23 1.13-.67 2.24-1.84 3.41-1.89 2.46-.11 5 .5 7.44.5.6 0 1.2-1.23 1.88-2-8.66-3.79-15.66-2.52-19.78 3.37 3.3 6.39 10.06 7 15.78 9.26.59.23 1.61-.54 2.4-.92 3.14-1.5 6.21-3.17 9.44-4.45.95-.37 2.33.37 3.51.59-.66 1.1-1.06 2.61-2 3.23a67.11 67.11 0 0 1-7.36 3.54c1.62.83 2.78 1.53 4 2 9.62 3.83 16.81 10.45 22.71 18.86a33.93 33.93 0 0 1 5.92 18.75c.14 3.52 1.61 5.26 5 5.36 6.72.19 12.18 2.61 16.3 8.17.72 1 3.27 1.35 4.67.95 10.36-3 10.33-3.08 14.51 7.13a7 7 0 0 0 .81 1.21 2.35 2.35 0 0 0 1 .09c8.67-3.71 8.64-3.71 12.09 5.41a6.91 6.91 0 0 0 1.93 2.62c2.26 2 4.65 3.76 7 5.66s4.31 3.61 6.25 5.25l14-7.27-10.16-12c-2 4.1-3.35 7.37-5.09 10.46-.61 1.08-2 1.69-3.11 2.52-.26-1.44-1.09-3.08-.67-4.28 1.27-3.57 3-7 4.94-11.16-6.52-2.47-12.74-4.68-18.82-7.22-1.49-.62-2.53-2.29-3.78-3.48 1.74-.14 3.58-.71 5.2-.34 3.19.72 6.27 2 10.82 3.46l-6.57-10.64c-2.9 1.22-5.43 2.47-8.09 3.31-1 .31-2.28-.33-3.44-.54.49-1.05.79-2.86 1.51-3 5.69-1.47 7.59-5 6.82-10.64-.48-3.58 2.48-3.44 4.79-3.2 3.82.4 5.56-.9 5.38-4.93a25.46 25.46 0 0 1 .86-7.42c.36-1.39 1.51-3.46 2.58-3.65 7.41-1.29 10.58-7.54 15.17-12.19 1.7-1.72 4-2.87 6-4.28 2.13 3.56-1.3 5-2.83 7-2.08 2.79-4.47 5.35-6 7.12l2 8.62zM146.74 75.6c0-8.84-2.08-15.48-6.55-21.74-7.07-9.91-17.13-14.83-28-19-7-2.69-13.59-6.23-20.47-9.44l-7.83 6.7c7.16 3.15 13.6 5.86 19.9 8.87 1.11.53 1.6 2.34 2.38 3.55a14.16 14.16 0 0 1-3.91.31 41.65 41.65 0 0 1-5.83-2.16c5.23 7.29 8.66 15 18.3 15.24a2.06 2.06 0 0 1 1.61 1c1.24 5.56 6.55 5.6 10.34 7.51 6.34 3.14 12.91 5.9 20.06 9.16zm80.74 40.06l-1.47-.44c-1.55 2.38-3 4.88-4.71 7.1-.66.83-2.11 1-3.2 1.52a11 11 0 0 1-.66-3.07 9.18 9.18 0 0 1 1.21-2.75l-13.13-11.1c-3.65 5.9-8.52 5-13.46 3.21-3.08-1.14-5.06.29-4.44 2.92.73 3.11 1.53 6.77 6 7.69 5.23 1.09 8.77 4.66 10.8 9.53 1.4 3.36 1.91 7.23 3.82 10.21 1.4 2.19 5 5.07 6.68 4.58 5-1.44 9.59-4.36 14.25-6.87a3 3 0 0 0 1.23-2.48c-.91-6.69-1.94-13.37-2.92-20.05zM76.81 66.79l-.22 1.07c7.45 1.67 14.85 3.66 22.36 5 20.62 3.54 40.89 7.64 59 19.16 3.78 2.4 2.49 3.15 1.16 5.2-1.66 2.57-3.46 5.06-5.39 7.86a76.4 76.4 0 0 0 8.3 2.68c3.39.67 5.88-.05 5.54-4.51a59.51 59.51 0 0 1 .07-11c.61-5.51-1.84-9.33-7.55-10-12.62-1.45-24.08-6.14-35.32-11.72-2.32-1.15-5.32-1.11-8-1.25-5.93-.32-11.88-.23-17.79-.72-1.38-.11-2.63-1.85-3.94-2.84 1.65-.4 3.33-1.21 4.95-1.12 4.65.26 9.28.89 13.92 1.37l.64-2.28-12.87-6.06zm131.08-2.86c.34 2 .17 4 1 5.37 2.18 3.67 5 7 7.18 10.65 2.78 4.56 5.67 8.73 10.44 11.69 5.15 3.18 9 7.86 11 15.09 1.3-2.05 2.48-3.33 3-4.84 1.11-3.3 1.84-6.73 2.8-10.08 1.11-3.87 3.25-7.85-2-10.61-.7-.37-.73-1.83-1.33-2.58-1.64-2.08-3.15-4.42-5.22-6-2.62-2-5.79-3.25-8.63-5-5.49-3.28-11.41-4.02-18.24-3.69zM184.7 88.34c-3.68 1.28-7 2.25-10.18 3.63a4.54 4.54 0 0 0-2.48 3c-.29 4.05-.12 8.13-.12 12.08 12.63 1.73 13.91 1.07 17.41-7.74zm29.65 81.26c-1.91-3.09-3.26-5.57-4.93-7.81a4.25 4.25 0 0 0-3-1.68c-4.55.35-8.94 4.29-9.61 8.73a5.13 5.13 0 0 0 1.34 4.11c4.77 3.76 10.14 6.24 16.41 6.09a4.87 4.87 0 0 0 1.5-.71l-.59-4.28a45.29 45.29 0 0 1-6.47 1.47c-1.24.1-2.56-.66-3.84-1 1-1 1.79-2.43 3-3 1.72-.93 3.73-1.18 6.19-1.92zm65-88c7.86-2.86 12.76-8.45 11.21-12.4-2-5-6.51-7.2-11.21-5.45V81.6zm-77.93 123c1.53 0 2.84.08 4.14 0 4.54-.34 6.11-3.65 3.32-7.33a14.88 14.88 0 0 0-4.16-3.39c-2.42-1.49-5-2.74-9.1-5zm-3.5 3.75c-4.6-14.33-5.24-15.31-10.66-16.75-1.55 13.43-1.11 14.14 10.67 16.74zm-7-70.23a91 91 0 0 0 7.82 6.47c1.09.73 3 .62 4.41.28.46-.11.82-2.27.55-3.32-.75-3-1.84-5.81-2.92-9.08zm9.43-40.89l-1.92-.83-7.17 8.14.8 1.72c2.76 0 7.32.94 7.92-.2 1.18-2.36.37-5.82.37-8.83zM42.97 47.34c-6.4 2.19-6.81 3.19-3.47 8.84zM268.21 203.7l-8.3 11.68c-1.34 1.9-2.76 3.75-3.95 5.74-.8 1.34-2 3-1.77 4.31 1.55 8.17-2.51 14.5-6.35 20.94-2.22 3.72-4.58 7.36-6.87 11l-2.32-1c.33-1.62.32-3.42 1.06-4.81 2.82-5.28 6.15-10.3 8.76-15.67 1.27-2.62 1.4-5.79 2.3-9.85-6.45 2.86-11 5.15-12.88 11.19-2.21 7-5.71 13.49-12.25 17.73a4.63 4.63 0 0 0-1.66 2.79c-1.3 6.66-2.46 13.35-3.74 20.45h14.27c-.49-3.09-1.18-6.11-1.37-9.15-.09-1.39.78-2.83 1.22-4.26.95 1.1 2.38 2.05 2.74 3.32.91 3.18 1.29 6.52 2 9.77s-.17 5.24-4 4.85c-.33 0-.68.05-1 0-11-2.26-18.69 2.86-26.05 10.41-20.12 20.63-45.3 34.25-69.62 49-1.13.68-2.7.64-4.06.94l-1-1.39c1.32-1.32 2.46-2.93 4-3.9 13.23-8.35 27-15.88 39.66-25s24.41-20.05 36.39-30.35c1.34-1.15 2.12-3.34 2.5-5.18 1.3-6.35 2.15-12.8 3.5-19.14.47-2.23 2-4.21 2.82-6.39a6.62 6.62 0 0 0 .26-3.26 67 67 0 0 0-1.93-9.77c-1.28-4 .32-5.43 4-6.1s7-1.78 10.11-2.58c.35-5.8-.24-11.33 1.25-16.23s4.85-9.29 7.84-13.6c.8-1.16 3.23-1.19 4.92-1.74-.61 1.54-.86 3.41-1.9 4.56-7 7.78-9.19 14.78-6.79 23.64 2.76-1.66 5.48-3.12 8-4.85 8.39-5.71 8.84-7.76 5.18-17.17-1-2.45-.78-5.34-1.13-8 4.49-.15 3.38 4.16 5 6.31a26.21 26.21 0 0 1 2 4.19l7.13-5.72a59 59 0 0 1-3-6.56c-.27-.85.49-2 .79-3.05 1 .42 2.44.56 2.87 1.3 4 6.87 8.12 13.73 11.72 20.84 1.46 2.89-.52 5.6-3.48 5.84-3.23.27-6.58-.63-9.83-1.28a1.91 1.91 0 0 1 .78-3.73c2.59.07 5.18.47 8.57.84zm-41.38 43.64l1.18.27 6.78-12.88-10 2.37zM24.23 161.57c7.22 0 14.36-1 21 .29s12.82 5 19.17 7.73a55.91 55.91 0 0 1 6.54 3.23 11.33 11.33 0 0 1 2.29 2.57c-.93.49-2 1.53-2.76 1.36-2.35-.51-5.07-.92-6.82-2.37-10.75-9-23.12-10.21-36.3-8.38-2.5.35-3.89 1.33-3.82 4.13.6 23.62.73 47.26 2 70.84.3 5.68 4.12 11.19 6.34 16.77 2.71 6.8 5.56 13.54 8.12 20.39 7.12 19 18.14 35.52 32.14 50.09 14.24 14.82 30.85 20.94 51.14 13.87 2.38-.83 5.24-.43 7.87-.34a2.56 2.56 0 0 1 1.88 1.66 2.65 2.65 0 0 1-1.42 2.15c-11.64 1.11-23 5.36-35 2.52-12.75-3-22.13-10.92-30.8-20.21-15.62-16.74-25.88-36.53-33.77-57.78-1.92-5.19-5.16-9.87-7.32-15-5.16-12.25-5.09-25.4-5.52-38.33-.49-14.64-.1-29.31.06-44 .07-6.47.42-12.93.89-19.38.1-1.33 1.29-2.59 2-3.88.7 1.39 1.83 2.73 2 4.19a62 62 0 0 1 .09 7.88z"/>
  <path d="M119.55 286.07c2.84 2.22 5 3.3 8.3 2.15a9.52 9.52 0 0 1 3.89-.72c1.2.12 2.32 1 3.48 1.48a17.54 17.54 0 0 1-2.47 2.53c-.62.43-1.61.31-2.41.53-5.29 1.46-10.49 2.39-15.49 5.62s-11.79 3.81-17.8 5.55c-7.74-1-14.37-3.46-19.59-8.76-3.17-3.22-6.49-5.43-11.05-6-1.21-.15-2.25-1.79-3.36-2.75 1.34-.44 2.67-.94 4-1.31 2.2-.61 4.43-1.1 6.62-1.72 4-1.13 8-3.19 12.1-3.3m29.29 8.68c-6.13-4.93-34.47-5.88-39.51 0h39.51zm-31.61 5.17c7.41 6.1 20.77 6.29 29.2 0h-29.2zM212.99 41.9a35.92 35.92 0 0 1-4.81-.74c-1.42-.42-2.69-1.32-4.09-1.83-5-1.8-9.21 1.11-8 6 2.23 9.23-4.26 14.49-8.79 20.5-1 1.32-4.6 1-7 .92-12.2-.5-10.87.69-12.27-11.53-.78-6.77-1.73-13.53-2.34-20.32-.12-1.29 1-2.7 1.53-4.05.9 1.15 2.28 2.18 2.59 3.46a56.72 56.72 0 0 1 1.08 8.4c.75 8.55-.18 7.31 9 8.66a34.39 34.39 0 0 1 1.56-4c2-3.69 1.43-6.4-2.48-8.49-1.62-.81-2.62-2.54-3.9-3.89l1-1.69c1.72.68 3.77 1 5.1 2.12 3 2.58 6 3 9.65 1.71a65.87 65.87 0 0 1 9.67-2.37c4.86-.94 11 2.4 12.5 7.14zm-39.73 20.2c3.14.24 5.93.57 8.73.62a10.37 10.37 0 0 0 3.09-1c-.43-1.14-.57-2.95-1.36-3.31-3.53-1.61-7.25-2.81-11.62-4.42zm17.75-20.4c-6.54 2.46-7.59 10.32-2.49 14.78 5.57-4 3.05-9.29 2.49-14.78z"/>
  <path d="M164.1 71.02a58.53 58.53 0 0 1 6.93-.53c.92 0 1.8 1 2.7 1.55-.62.84-1.12 2.24-1.89 2.41-2.74.61-5.72 1.45-8.33.9-1.63-.34-3.39-2.81-4-4.68-1.77-5.35-3-10.88-4.43-16.33-1.41-5.29-2.85-10.58-4.42-16.37-5.78-.58-11.71-1-17.59-1.86-1.39-.2-2.59-1.72-3.87-2.63 1.4-.52 2.81-1.5 4.2-1.47 3.79.08 7.57.58 11.63.28-6-3-7.74-12.77-17.18-9.47.54-4.52 4.41-6.79 8.06-4.23 4.9 3.44 9.08 7.95 13.44 12.13 10.25 9.83 8.7 24.14 13.52 36 .48 1.25.74 2.57 1.23 4.3zM210.44 19.57l6.66 5.58 6.1-6.71c-6.89-3.84-8.61-3.53-13.82 1.28a6.55 6.55 0 0 1-5.09 1.18 27.49 27.49 0 0 1-7.3-3.09c-.76-.42-1-1.78-1.49-2.71 1.1-.35 2.26-1.11 3.3-1a11.74 11.74 0 0 1 4.11 1.71c2.73 1.62 4.27.55 5.39-2-4.18-7.5-9.77.47-14.45-1.14 1.54-6.11 10.3-8.82 15.32-4.46 2.84 2.47 5.63 3.19 9.11 3.79s6.52 2.75 9.76 4.22c-1.69 3.02-3.38 6.12-5.15 9.12a5.28 5.28 0 0 1-1.75 1.76c-2 1.19-5.31 3.61-5.79 3.15-2.52-2.46-6.15-4.75-4.91-10.68zM66.85 233.68a62.9 62.9 0 0 0-2.55 7.28c-.43 1.88-1 4.83 0 5.66 1.34 1.17 4 .95 6.1 1.08s4.48-.82 5.94 0c6 3.58 12.31 3.47 18.85 2.58q7.89-1.07 15.84-1.59c.92-.06 1.93 1.25 2.9 1.92-.59.68-1.13 1.91-1.78 2-9.41.84-18.83 1.55-28.25 2.19a7.33 7.33 0 0 1-3.38-.68 20.23 20.23 0 0 0-12.71-1.59c-6.67 1.21-11.07-6.05-8-12.23 1.35-2.67 3-5.2 4.51-7.79zM38.63 192.96c.11 4.82 2.73 5.95 6.65 5.37a26.49 26.49 0 0 1 4.42-.66 2.7 2.7 0 0 1 2.12 1.42 3 3 0 0 1-1.24 2.34c-3.66 2.43-11.29 1.61-14-1.37s-3.44-12.2-1.16-15.24a3.2 3.2 0 0 1 2-1 41 41 0 0 1 3 4.17c2.36-.39 5.41-1.08 8.49-1.32 1.37-.1 2.81.72 4.22 1.12-1.23 1-2.31 2.53-3.72 2.94-3.57 1-7.19 1.51-10.78 2.23zM8.51 149.11c-1.11-1-2.57-1.8-3.28-3-6.14-10.59-7-21.59-1.94-32.82.54-1.21 2.27-1.88 3.44-2.81.16 1.44.89 3.13.39 4.29-4.33 10-3.58 19.65 1.71 29.09a19.15 19.15 0 0 1 1.23 4.35zM247.86 53.05a46.66 46.66 0 0 1 1.29-5.3 11 11 0 0 1 1.76-2.41c6.92-9.17 6.36-11.1-4.37-14.88a6.78 6.78 0 0 1-2.32-.83 12.42 12.42 0 0 1-1.73-2.62c1-.45 2.17-1.53 2.83-1.26a107.28 107.28 0 0 1 12.47 5.86c1.15.65 1.82 2.78 2 4.32.64 4.66-5.97 14.7-11.93 17.12zM66.89 206.96a17.09 17.09 0 0 1-2.6 3.17c-5.64 4.24-19.35 4.74-25.39.95-.71-.44-1.61-1.91-1.41-2.2.55-.79 1.68-1.74 2.5-1.67 2 .16 3.86 1 5.81 1.34 5.84 1.1 11.55 1.38 16.76-2.38.88-.63 2.34-.46 3.53-.66zM120.05 219.52c-2-.7-3.65-.88-4.75-1.76-6.22-5-7.83-17.82-3.1-24.29.49-.68 1.6-.91 2.41-1.35.47.95 1.28 1.88 1.32 2.85s-.6 2.21-.93 3.32c-1.85 6.27-2 12.17 3.68 16.81a4.37 4.37 0 0 1 1.12 1.61 13.49 13.49 0 0 1 .25 2.81zM29.52 74.69c-.7 1.7-1.41 3.39-2.09 5.09-2 5.09-8.22 8-7.6 14.57 0 .4-1.14 1.25-1.78 1.28a2.35 2.35 0 0 1-1.88-1.17 46.91 46.91 0 0 1-2.1-7.61c-.13-.78 1.36-2.6 1.48-2.55 4.42 2 4.66-2.34 6.38-4.22 2-2.16 3.67-4.55 5.49-6.85zM62.57 195.47c5.6.61 9.73 1 13.85 1.52a6.46 6.46 0 0 1 5.49 7.85 3.26 3.26 0 0 1-1.89 1.86 2.22 2.22 0 0 1-1.85-1.1c-.51-5.39-4.67-4.55-8.14-4.93a33.18 33.18 0 0 1-6.4-.92c-1.72-.55-3.21-1.84-4.8-2.8zM144.08 18.19a76.6 76.6 0 0 1-7.17-3.45c-.62-.37-.65-2-.63-3a2.74 2.74 0 0 1 2.07-.58c4.75 3.81 9.7 1.44 14.71.92 2.56-.27 5.27 1 7.91 1.51-2.38.86-4.71 1.86-7.14 2.53-2.87.75-5.82 1.22-9.75 2.07zM231.97 49.99c4.06-.38 8.11-.87 12.18-1 .7 0 1.46 1.38 2.19 2.12-.8.62-1.52 1.62-2.4 1.78a31.45 31.45 0 0 1-5 .1c-4.91.1-6 1.79-4.31 6.26a19.41 19.41 0 0 1 .63 3.84c-5.82-1-8-5.51-5.19-9.89.7-1.11 1.37-2.25 2.05-3.37zM185.25 9.11c-3.2-.61-4.93-.7-6.45-1.29-4.18-1.62-7.31-.82-9.74 3.14-.67 1.09-2.38 1.54-3.61 2.28 0-1.6-.47-3.5.21-4.75a11.48 11.48 0 0 1 16.69-3.67c.92.66 1.36 1.94 2.9 4.29zM262.8 111.66c-.68.81-1.17 1.92-1.84 2a2.83 2.83 0 0 1-2.44-1q-3.86-7.77-7.33-15.73a2.83 2.83 0 0 1 .65-2.61c.5-.41 2.31-.22 2.54.22 2.87 5.59 5.56 11.25 8.42 17.12zM127.14 252.8c.66-1.82 1-3.83 2.06-5.4 1.65-2.5 2.21-4.5 0-7.05-.91-1-.66-3.08-.94-4.66 1.48.76 3.36 1.17 4.37 2.33 4.7 5.42 2.9 12-4 15.42zM239.26 22.34c-.8-.73-1.92-1.28-2-1.94a2.84 2.84 0 0 1 1.25-2.35c4.44-1.86 8.93-3.61 13.49-5.14.75-.25 2 .6 2.81 1.24a2.5 2.5 0 0 1-.63 2.08c-4.83 2.11-9.83 4.05-14.92 6.11zM276.84 108.96a40.12 40.12 0 0 1-.51 5.88c-.19.86-1.35 1.5-2.06 2.24-.67-.78-1.9-1.56-1.91-2.35a99.82 99.82 0 0 1 .63-11.31c.08-.72 1.38-1.6 2.25-1.79.43-.09 1.58 1.16 1.68 1.91a38.45 38.45 0 0 1 .08 5.42h-.16z"/>
  </g>
</svg>
